<?xml version="1.0" encoding="UTF-8"?>
<svg xmlns="http://www.w3.org/2000/svg" width="60" height="60" viewBox="0 0 60 60" fill="none"> <rect width="60" height="60" fill="white"/> <path d="M47.7281 35.4493C46.7539 34.6929 45.2111 34.275 43.1424 34.2074C41.714 34.1607 40.0507 34.2951 38.4904 34.5787C37.8516 32.8535 36.651 31.4877 35.0617 30.6954C33.2736 29.804 31.1982 29.7334 29.2181 30.4966C28.8918 30.6224 28.7075 30.9687 28.7856 31.3096C28.7895 31.3268 28.7941 31.3435 28.7981 31.3606C27.4738 31.1094 26.0655 31.2435 24.7176 31.7636C24.3914 31.8894 24.2073 32.2357 24.2853 32.5764C24.2892 32.5936 24.2938 32.6105 24.2978 32.6276C22.974 32.3767 21.5659 32.5106 20.2175 33.0302C19.8911 33.156 19.7068 33.5027 19.7851 33.8437C19.789 33.8607 19.7935 33.8774 19.7975 33.8943C18.4738 33.6434 17.0663 33.7774 15.719 34.2972C15.3928 34.4231 15.2087 34.7694 15.2867 35.1101C15.5334 36.1875 15.9811 37.1532 16.5856 37.9681C14.6375 38.6765 13.0263 40.1769 12.0672 42.2151C11.9184 42.5314 12.0246 42.9091 12.3164 43.1015C13.7366 44.0376 15.3159 44.5171 16.881 44.517C17.3853 44.517 17.888 44.4653 18.3836 44.365C18.2914 45.3771 18.4121 46.4363 18.7632 47.4857C18.8606 47.7765 19.1322 47.9658 19.4296 47.9658C19.4717 47.9658 19.5144 47.962 19.5571 47.9541C20.9788 47.693 22.2493 47.0717 23.2472 46.1673C23.2528 46.1844 23.2578 46.2017 23.2636 46.2189C23.3609 46.5097 23.6326 46.699 23.9299 46.699C23.9721 46.699 24.0147 46.6952 24.0574 46.6873C25.4793 46.4261 26.7491 45.8051 27.7459 44.9013C27.7514 44.9181 27.7562 44.9349 27.7618 44.9517C27.859 45.2427 28.1308 45.4322 28.4283 45.4321C28.4704 45.4321 28.5131 45.4283 28.5557 45.4205C29.9786 45.1594 31.2492 44.5384 32.2462 43.6344C32.2517 43.6512 32.2566 43.668 32.2622 43.6848C32.3594 43.9758 32.6312 44.1653 32.9287 44.1652C32.9707 44.1652 33.0134 44.1614 33.0561 44.1536C35.0872 43.7808 36.791 42.6898 37.8536 41.0815C38.8394 39.5895 39.1928 37.776 38.8634 35.9405C41.8878 35.4081 45.4333 35.4474 46.8659 36.5599C47.1726 36.798 47.6144 36.7425 47.8524 36.4358C48.0904 36.1292 48.0348 35.6875 47.7281 35.4493V35.4493ZM20.3629 35.5019C21.0521 36.9361 22.1489 38.0634 23.4997 38.7445L21.5195 39.302C19.3323 39.0782 17.5525 37.5852 16.8287 35.4088C18.0314 35.0729 19.2592 35.1042 20.3629 35.5019V35.5019ZM18.6962 42.8377C17.0482 43.3461 15.2475 43.136 13.6318 42.2533C14.5519 40.6544 15.979 39.535 17.6485 39.1102C18.3516 39.7126 19.1703 40.1668 20.0701 40.4403C19.4448 41.143 18.9826 41.9574 18.6962 42.8377V42.8377ZM22.8918 44.5007C22.1583 45.4159 21.1267 46.084 19.9235 46.4264C19.4079 44.1916 20.1498 41.9887 21.9005 40.6556L23.8797 40.0984C23.0816 41.3843 22.7327 42.918 22.8918 44.5007ZM21.3275 34.142C22.531 33.8062 23.7588 33.8374 24.8622 34.2346C25.5507 35.6691 26.6477 36.7965 27.9991 37.4776L26.0193 38.035C23.8329 37.8112 22.0528 36.3183 21.3275 34.142ZM27.391 43.2332C26.659 44.1488 25.6277 44.817 24.4239 45.1596C23.9083 42.9245 24.6502 40.7215 26.4013 39.3885L28.3802 38.8313C27.582 40.117 27.2327 41.6506 27.391 43.2332V43.2332ZM25.8273 32.8751C27.0304 32.539 28.2583 32.5701 29.3626 32.9678C30.0511 34.4023 31.1479 35.5296 32.4993 36.2108L30.5194 36.7682C28.3313 36.544 26.5511 35.0512 25.8273 32.8751ZM31.8914 41.9663C31.1593 42.8819 30.1274 43.5502 28.9227 43.8928C28.4085 41.6574 29.1511 39.4541 30.9019 38.1214L32.8807 37.5643C32.0824 38.85 31.7331 40.3837 31.8914 41.9663V41.9663ZM30.3277 31.6083C31.7445 31.2125 33.1824 31.3299 34.4343 31.954C35.651 32.5605 36.5837 33.5977 37.1111 34.9123L35.0191 35.5013C32.8314 35.277 31.0515 33.7842 30.3277 31.6083V31.6083ZM36.68 40.3065C35.9393 41.4276 34.7976 42.2364 33.423 42.6262C32.9086 40.3905 33.6514 38.187 35.4026 36.8543L37.4915 36.2662C37.7331 37.7176 37.4506 39.1401 36.68 40.3065Z" fill="#f55455"/> <path d="M13.1345 18.6233C14.5696 17.509 18.1146 17.4701 21.1368 18.0039C21.0167 18.6716 20.9862 19.3406 21.0478 19.997C21.0841 20.3837 21.4271 20.6674 21.8135 20.6315C22.2001 20.5952 22.4841 20.2523 22.4479 19.8658C22.4007 19.3615 22.4216 18.8464 22.508 18.3298L24.5987 18.9184C26.3493 20.2515 27.0911 22.4543 26.5758 24.689C26.1389 24.565 25.7241 24.3989 25.3372 24.1928C24.9944 24.0102 24.5686 24.14 24.386 24.4828C24.2034 24.8255 24.3333 25.2513 24.676 25.4339C25.3696 25.8034 26.1317 26.0669 26.9413 26.2169C27.1182 26.2498 27.3038 26.2124 27.4542 26.1141C27.6077 26.0138 27.6966 25.8681 27.7526 25.6972C28.7505 26.6016 30.0209 27.2229 31.4427 27.484C31.6192 27.5165 31.8044 27.4791 31.9546 27.381C32.108 27.2807 32.197 27.135 32.2529 26.9641C33.251 27.8688 34.5215 28.4901 35.9432 28.7509C36.1197 28.7833 36.3048 28.7459 36.455 28.6477C36.6084 28.5474 36.6973 28.4018 36.7533 28.2309C37.7514 29.1356 39.0219 29.7569 40.4436 30.0177C40.7839 30.0802 41.1279 29.8768 41.2375 29.5488C41.5877 28.4992 41.7079 27.4402 41.6155 26.4283C42.1103 26.5285 42.6122 26.58 43.1162 26.58C44.6805 26.58 46.261 26.1008 47.6834 25.1653C47.9759 24.973 48.0824 24.5948 47.9331 24.2781C46.9724 22.2399 45.3607 20.7396 43.4136 20.0313C44.019 19.2159 44.4673 18.2495 44.7139 17.1714C44.792 16.8304 44.6075 16.4839 44.281 16.3584C42.9306 15.839 41.5226 15.7055 40.2008 15.9569C40.2049 15.9394 40.2096 15.9222 40.2136 15.9046C40.2916 15.5635 40.1071 15.217 39.7806 15.0915C38.4303 14.5721 37.0223 14.4386 35.7004 14.69C35.7045 14.6725 35.7091 14.6553 35.7132 14.6377C35.7913 14.2967 35.6067 13.9502 35.2802 13.8246C33.9301 13.3052 32.5223 13.1718 31.2006 13.4231C31.2045 13.4063 31.209 13.3898 31.2129 13.3729C31.2909 13.032 31.1066 12.6857 30.7803 12.5599C28.801 11.7971 26.7265 11.8674 24.939 12.7577C23.3489 13.5496 22.1474 14.9157 21.5077 16.6414C19.9487 16.3574 18.2859 16.2229 16.8569 16.2698C14.789 16.3379 13.2465 16.756 12.272 17.5127C11.9653 17.7508 11.9098 18.1925 12.1479 18.4993C12.3861 18.8059 12.8278 18.8615 13.1345 18.6233V18.6233ZM31.0759 25.956C29.8729 25.6136 28.8412 24.9455 28.1077 24.0303C28.2669 22.4477 27.918 20.9141 27.1199 19.6282L29.0964 20.1847C30.8489 21.5174 31.5916 23.7206 31.0759 25.956ZM35.5761 27.223C34.3732 26.8807 33.3417 26.2126 32.6079 25.2971C32.7671 23.7144 32.418 22.1808 31.6195 20.8951L33.597 21.4518C35.3488 22.7843 36.0914 24.9874 35.5761 27.223ZM40.076 28.4897C38.8733 28.1474 37.8417 27.4793 37.1081 26.5637C37.2669 24.9811 36.9178 23.4476 36.1196 22.1621L38.0978 22.719C39.848 24.0505 40.5903 26.2533 40.076 28.4897ZM46.3676 24.3164C44.7489 25.1989 42.9477 25.4088 41.3023 24.9006C41.0157 24.02 40.5533 23.2055 39.928 22.503C40.8276 22.2293 41.6463 21.7752 42.3495 21.1732C44.0183 21.5976 45.4459 22.7171 46.3676 24.3164ZM43.1714 17.4707C42.4478 19.6464 40.6672 21.1398 38.4785 21.3652L36.4977 20.8076C37.8494 20.1263 38.9465 18.9992 39.6352 17.5655C40.7367 17.1662 41.965 17.1344 43.1714 17.4707ZM38.6711 16.2038C37.9475 18.3794 36.1672 19.8727 33.9786 20.0983L31.9976 19.5406C33.3491 18.8594 34.4461 17.7323 35.1348 16.2986C36.2364 15.8994 37.4648 15.8676 38.6711 16.2038V16.2038ZM34.1708 14.937C33.4472 17.1124 31.6671 18.6058 29.4788 18.8315L27.4983 18.2739C28.8497 17.5926 29.9468 16.4654 30.6353 15.0315C31.7366 14.6325 32.9648 14.6008 34.1708 14.937V14.937ZM25.5657 14.0165C26.8171 13.3933 28.2543 13.2762 29.6704 13.6716C28.9468 15.8463 27.167 17.3392 24.9793 17.5646L22.8866 16.9754C23.4148 15.6604 24.3484 14.6228 25.5657 14.0165Z" fill="#f55455"/> <path d="M22.4558 22.1824C22.1085 22.3561 21.9677 22.7785 22.1414 23.1257L22.1434 23.1297C22.2664 23.3756 22.5134 23.5169 22.7704 23.5169C22.8765 23.5169 22.9842 23.4929 23.0857 23.4422C23.4331 23.2685 23.5728 22.8442 23.3992 22.4969C23.2255 22.1496 22.8033 22.0087 22.4558 22.1824Z" fill="#f55455"/> </svg>