<?xml version="1.0" encoding="UTF-8"?>
<svg xmlns="http://www.w3.org/2000/svg" width="60" height="60" viewBox="0 0 60 60" fill="none"> <rect width="60" height="60" fill="white"/> <path d="M44.5276 20.5482C44.5269 19.7768 44.1137 19.0658 43.4494 18.6927C43.4407 18.6878 43.4319 18.683 43.423 18.6786L30.7796 12.2687C30.1496 11.9139 29.4003 11.9102 28.7677 12.2592L16.1874 18.6335C15.4659 18.9853 15 19.7363 15 20.5488V30.9726C15 34.7543 16.3948 38.3937 19.0336 41.4974C21.6248 44.545 25.2292 46.8244 29.1832 47.9162C29.3727 47.972 29.5682 48 29.764 48C29.9469 48 30.1301 47.9755 30.3089 47.9267C34.2781 46.8389 37.8961 44.5556 40.4964 41.4974C43.1351 38.3936 44.5299 34.7543 44.5299 30.9725L44.5276 20.5482ZM39.425 40.5865C37.0061 43.4316 33.6365 45.5567 29.9377 46.5703C29.8175 46.6032 29.6966 46.602 29.5785 46.5666C29.5737 46.5651 29.5688 46.5638 29.5639 46.5624C25.8761 45.5456 22.5168 43.4233 20.105 40.5865C17.6852 37.7405 16.4062 34.416 16.4062 30.9726V20.5488C16.4062 20.2698 16.563 20.0138 16.8056 19.8966C16.8096 19.8947 16.8136 19.8927 16.8175 19.8907L29.4153 13.5074C29.4242 13.5029 29.433 13.4982 29.4418 13.4933C29.5431 13.4364 29.6539 13.4081 29.7648 13.4081C29.8785 13.4081 29.9923 13.4379 30.0958 13.4974C30.1066 13.5037 30.1176 13.5097 30.1287 13.5153L42.7715 19.9248C42.9874 20.0513 43.1212 20.2895 43.1215 20.549L43.1237 30.9726C43.1237 34.4161 41.8447 37.7405 39.425 40.5865Z" fill="#f55455"/> <path d="M41.3304 20.7709L30.0821 15.0683C29.8822 14.967 29.6461 14.967 29.4463 15.0682L26.6446 16.4879C26.2982 16.6634 26.1597 17.0865 26.3352 17.4328C26.5108 17.7793 26.9338 17.9178 27.2802 17.7421L29.764 16.4836L40.3094 21.8298L40.3114 30.9734C40.3121 33.7392 39.2646 36.4334 37.2824 38.7648C35.3598 41.0261 32.6969 42.7695 29.7653 43.6903C26.8331 42.7693 24.17 41.0259 22.2476 38.7649C20.266 36.4342 19.2186 33.7397 19.2186 30.9727V21.827L21.6345 20.6027C21.9809 20.4273 22.1194 20.0041 21.9439 19.6579C21.7684 19.3114 21.3452 19.1729 20.9989 19.3485L18.1977 20.7679C17.9614 20.8876 17.8124 21.1301 17.8124 21.3951V30.9727C17.8124 34.078 18.9756 37.0875 21.1763 39.6758C23.3163 42.1929 26.2948 44.1189 29.5633 45.0992C29.6291 45.119 29.6972 45.1289 29.7653 45.1289C29.8333 45.1289 29.9014 45.119 29.9672 45.0992C33.2352 44.1192 36.2135 42.1931 38.3537 39.6758C40.5551 37.0866 41.7183 34.0773 41.7176 30.9732L41.7155 21.3979C41.7155 21.1329 41.5666 20.8906 41.3304 20.7709V20.7709Z" fill="#f55455"/> <path d="M21.731 28.5616L24.1267 31.0462L23.6839 34.422C23.5987 34.8652 23.6581 35.3137 23.8563 35.7205C24.2152 36.4575 24.9557 36.887 25.7251 36.8869C26.0295 36.8869 26.3386 36.8197 26.6301 36.6777L29.7295 35.169L32.9124 36.6853C33.2766 36.8593 33.6837 36.9214 34.0891 36.8653C34.6376 36.7895 35.1237 36.5046 35.4578 36.0631C35.7919 35.6217 35.9342 35.0766 35.8582 34.5272L35.3807 31.1095L37.7366 28.6245C38.0593 28.3166 38.2702 27.9218 38.3471 27.4812C38.4423 26.9352 38.3194 26.3849 38.0007 25.9314C37.6821 25.4779 37.2059 25.1757 36.6617 25.0807L33.2653 24.479L31.5823 21.3831C31.5823 21.383 31.5822 21.3829 31.5821 21.3828C31.3883 21.0266 31.0963 20.7371 30.7379 20.5462C29.7304 20.0089 28.4738 20.3914 27.9364 21.399L26.3148 24.443L22.9013 25.0773C22.4804 25.1433 22.0954 25.3347 21.7874 25.6309C20.9638 26.423 20.9383 27.7374 21.731 28.5616V28.5616ZM22.7621 26.6445C22.8622 26.5482 22.9872 26.4865 23.1236 26.4659C23.1316 26.4647 23.1396 26.4634 23.1475 26.4619L26.9046 25.7637C27.1149 25.7245 27.2961 25.5918 27.3967 25.403L29.1773 22.0604C29.2968 21.8365 29.527 21.7089 29.7646 21.7089C29.8701 21.7089 29.977 21.7339 30.0763 21.7869C30.1914 21.8483 30.285 21.9409 30.3471 22.055L32.1916 25.4481C32.2938 25.6361 32.476 25.7673 32.6867 25.8046L36.4183 26.4657C36.5942 26.4964 36.7477 26.5937 36.8503 26.7398C36.953 26.886 36.9926 27.0634 36.9619 27.2393C36.9367 27.3838 36.8669 27.5129 36.7601 27.6126C36.7496 27.6224 36.7395 27.6324 36.7295 27.6429L34.1273 30.3876C33.9801 30.5429 33.9116 30.7568 33.9412 30.9687L34.4655 34.7207C34.4899 34.8971 34.4441 35.0724 34.3367 35.2144C34.2293 35.3563 34.073 35.4479 33.8966 35.4723C33.7642 35.4907 33.6335 35.4713 33.5178 35.416L30.0287 33.7538C29.8355 33.6619 29.6109 33.6627 29.4186 33.7564L26.0148 35.4132C25.6832 35.5748 25.2823 35.4363 25.1208 35.1047C25.0384 34.9357 25.046 34.7793 25.0668 34.6779C25.0703 34.6613 25.0731 34.6445 25.0753 34.6276L25.5651 30.8933C25.593 30.6811 25.5226 30.4679 25.3742 30.3138L22.7441 27.586C22.4893 27.3215 22.4974 26.899 22.7621 26.6445V26.6445Z" fill="#f55455"/> <path d="M28.9854 31.1435C28.5971 31.1435 28.2823 31.4583 28.2823 31.8466C28.2823 32.2348 28.5971 32.5497 28.9854 32.5497H30.5444C30.9327 32.5497 31.2475 32.2348 31.2475 31.8466C31.2475 31.4583 30.9327 31.1435 30.5444 31.1435H30.468V26.222C30.468 25.9708 30.334 25.7387 30.1165 25.6131C29.899 25.4875 29.631 25.4875 29.4134 25.6131L28.6339 26.0631C28.2976 26.2572 28.1824 26.6872 28.3765 27.0235C28.5202 27.2725 28.7932 27.4002 29.0619 27.371V31.1434H28.9854V31.1435Z" fill="#f55455"/> <path d="M24.1399 19.2483C24.5282 19.2483 24.843 18.9334 24.843 18.5452C24.843 18.1569 24.5282 17.842 24.1399 17.842H24.1394C23.751 17.842 23.4365 18.1569 23.4365 18.5452C23.4365 18.9334 23.7515 19.2483 24.1399 19.2483Z" fill="#f55455"/> </svg>