<?xml version="1.0" encoding="UTF-8"?>
<svg xmlns="http://www.w3.org/2000/svg" width="60" height="60" viewBox="0 0 60 60" fill="none"> <rect width="60" height="60" fill="white"/> <path d="M41.125 41.6875C41.4357 41.6875 41.6875 41.4357 41.6875 41.125C41.6875 40.8143 41.4357 40.5625 41.125 40.5625C40.8143 40.5625 40.5625 40.8143 40.5625 41.125C40.5625 41.4357 40.8143 41.6875 41.125 41.6875Z" fill="#f55455"/> <path d="M42.25 37.1875C42.5607 37.1875 42.8125 36.9357 42.8125 36.625C42.8125 36.3143 42.5607 36.0625 42.25 36.0625C41.9393 36.0625 41.6875 36.3143 41.6875 36.625C41.6875 36.9357 41.9393 37.1875 42.25 37.1875Z" fill="#f55455"/> <path d="M36.625 42.8125C36.9357 42.8125 37.1875 42.5607 37.1875 42.25C37.1875 41.9393 36.9357 41.6875 36.625 41.6875C36.3143 41.6875 36.0625 41.9393 36.0625 42.25C36.0625 42.5607 36.3143 42.8125 36.625 42.8125Z" fill="#f55455"/> <path d="M40.7954 25.375H42.8125C45.6042 25.375 47.875 23.1036 47.875 20.3125V17.5H45.0625C42.2708 17.5 40 19.7714 40 22.5625V24.5796L39.3441 25.2355C36.0276 19.0688 31.3561 13 30.4375 13C29.4565 13 25.0156 19.4496 23.8467 21.2744C23.7634 21.4043 23.6785 21.5404 23.5941 21.6738L23.125 21.2046V19.1875C23.125 16.3964 20.8542 14.125 18.0625 14.125H15.25V16.9375C15.25 19.7286 17.5208 22 20.3125 22H22.3296L22.9855 22.6559C20.6888 26.4291 18.3168 31.1671 18.0878 34.9212C17.4027 34.5747 16.6315 34.375 15.8125 34.375H13V37.1875C13 39.9792 15.2708 42.25 18.0625 42.25H20.0717C22.3679 45.7786 26.2075 47.875 30.4375 47.875C32.0389 47.875 33.5903 47.5645 35.0607 46.9711C36.2611 47.5566 37.5846 47.875 38.9594 47.875C43.8756 47.875 47.875 43.8756 47.875 38.9594C47.875 36.5783 46.948 34.3396 45.2633 32.6554L43.375 30.7671L42.2337 31.9084C41.7308 30.1849 40.8955 28.2454 39.8909 26.2795L40.7954 25.375ZM42.8125 24.25H41.9204L44.1704 22H46.3647C45.7307 23.3281 44.3791 24.25 42.8125 24.25ZM46.75 18.625V20.3125C46.75 20.5038 46.7314 20.6905 46.705 20.875H45.2954L46.0227 20.1477L45.2273 19.3523L43.375 21.2046V19.0103C43.8874 18.7662 44.4584 18.625 45.0625 18.625H46.75ZM41.125 22.5625C41.125 21.4926 41.5553 20.5223 42.25 19.8124V22.3296L41.125 23.4546V22.5625ZM22 19.1875V20.0796L20.875 18.9546V16.4374C21.5697 17.1473 22 18.1176 22 19.1875ZM20.3125 20.875C18.1418 20.875 16.375 19.1087 16.375 16.9375V15.25H18.0625C18.6666 15.25 19.2376 15.3912 19.75 15.6353V17.8296L19.0227 17.1023L18.2273 17.8977L21.2046 20.875H20.3125ZM19.75 40.3296L18.625 39.2046V36.6874C19.3197 37.3979 19.75 38.3682 19.75 39.4375V40.3296ZM14.125 35.5H15.8125C16.4166 35.5 16.9876 35.6412 17.5 35.8853V38.0796L15.6477 36.2273L14.8523 37.0227L15.5796 37.75H14.17C14.1436 37.5655 14.125 37.3788 14.125 37.1875V35.5ZM14.5103 38.875H16.7046L18.9546 41.125H18.0625C16.4959 41.125 15.1442 40.2031 14.5103 38.875V38.875ZM44.4679 33.4508C45.94 34.9229 46.75 36.8787 46.75 38.9594C46.75 43.2552 43.2552 46.75 38.9594 46.75C36.8787 46.75 34.9223 45.94 33.4508 44.4679L32.3579 43.375L33.1532 42.5796L34.2462 43.6726C35.5062 44.932 37.1796 45.625 38.9594 45.625C42.6353 45.625 45.625 42.6353 45.625 38.9594C45.625 37.1796 44.932 35.5056 43.6726 34.2462L42.5796 33.1532L43.375 32.3579L44.4679 33.4508ZM41.7843 33.9486L42.8772 35.0416C43.924 36.0889 44.5 37.4806 44.5 38.9594C44.5 39.0398 44.4916 39.118 44.4882 39.1979L38.6286 37.1048L41.7843 33.9486ZM40.3324 44.3206L38.1156 38.1156L44.3206 40.3319C43.8205 42.2843 42.2843 43.8205 40.3324 44.3206V44.3206ZM37.1048 38.6281L39.1979 44.4876C39.118 44.4916 39.0398 44.5 38.9594 44.5C37.48 44.5 36.0884 43.924 35.0416 42.8772L33.9486 41.7843L37.1048 38.6281ZM30.7671 43.375L32.6554 45.2633C33.0166 45.6244 33.4081 45.9434 33.8159 46.2331C32.7286 46.5762 31.5968 46.75 30.4375 46.75C26.5062 46.75 22.9444 44.7593 20.875 41.4226V39.4375C20.875 37.9446 20.2219 36.6048 19.1903 35.6778C19.1898 35.6181 19.1875 35.5596 19.1875 35.5C19.1875 28.3709 28.6353 16.1522 30.4414 14.2825C32.1092 15.9627 39.5567 25.6686 41.3174 32.8242L30.7671 43.375Z" fill="#f55455"/> <path d="M24.8125 23.9586L25.7749 24.5414C26.6671 23.0693 27.6571 21.5669 28.7174 20.0763L27.8011 19.4243C26.7244 20.9369 25.7187 22.4629 24.8125 23.9586Z" fill="#f55455"/> <path d="M22.8989 27.368L23.8996 27.881C24.2641 27.1694 24.6731 26.4208 25.1146 25.6558L24.1404 25.0933C23.6892 25.8751 23.2719 26.6407 22.8989 27.368Z" fill="#f55455"/> </svg>