<?xml version="1.0" encoding="UTF-8"?> <svg xmlns="http://www.w3.org/2000/svg" width="65" height="65" viewBox="0 0 65 65" fill="none"> <circle cx="32.5" cy="32.5" r="32.5" fill="white"></circle> <path d="M40.0835 26.8141L35.9775 23.3924L35.2821 15.8129C35.248 15.4409 34.936 15.1562 34.5625 15.1562H28.7812C28.4077 15.1562 28.0957 15.4409 28.0616 15.8129L27.3663 23.3923L23.2602 26.8141C23.0947 26.9514 23 27.1537 23 27.3691V50.2773C23 50.4674 23.0773 50.6538 23.2117 50.7882C23.3462 50.9226 23.5326 51 23.7227 51H28.4199C28.8181 51 29.1426 50.6755 29.1426 50.2773C29.1426 49.8792 28.8181 49.5547 28.4199 49.5547H24.4453V27.7073L28.3202 24.4785H35.0236L38.8984 27.7073V31.3076H31.6719C31.2728 31.3076 30.9492 31.6312 30.9492 32.0303V36.3662C30.9492 36.6154 31.0776 36.8469 31.2889 36.979L33.8398 38.5733V44.3154C33.8398 44.7145 34.1634 45.0381 34.5625 45.0381H38.8984V49.5547H34.9238C34.5256 49.5547 34.2012 49.8792 34.2012 50.2773C34.2012 50.6755 34.5256 51 34.9238 51H39.6211C39.8112 51 39.9976 50.9227 40.1319 50.7882C40.2664 50.6538 40.3438 50.4674 40.3438 50.2773V27.3691C40.3438 27.1538 40.249 26.9514 40.0835 26.8141ZM28.8506 23.0332L29.4406 16.6016H33.9031L34.4932 23.0332H28.8506ZM35.2852 43.5928V38.1729C35.2852 37.9237 35.1568 37.6921 34.9455 37.56L32.3945 35.9657V32.7529H38.8984V43.5928H35.2852Z" fill="#f55455"></path> <path d="M31.6719 51C32.071 51 32.3945 50.6765 32.3945 50.2773C32.3945 49.8782 32.071 49.5547 31.6719 49.5547C31.2728 49.5547 30.9492 49.8782 30.9492 50.2773C30.9492 50.6765 31.2728 51 31.6719 51Z" fill="#f55455"></path> <path d="M31.6719 39.2568C31.2728 39.2568 30.9492 39.5804 30.9492 39.9795V44.3154C30.9492 44.7145 31.2728 45.0381 31.6719 45.0381C32.071 45.0381 32.3945 44.7145 32.3945 44.3154V39.9795C32.3945 39.5804 32.071 39.2568 31.6719 39.2568Z" fill="#f55455"></path> <path d="M43.8089 24.248L43.1448 23.9625C43.0538 23.9235 42.9584 23.904 42.8601 23.904C42.5703 23.904 42.3102 24.0753 42.196 24.3412C42.0385 24.7069 42.2083 25.1332 42.5739 25.2908L43.238 25.5762C43.3291 25.6152 43.4245 25.6348 43.5228 25.6348C43.8126 25.6348 44.0734 25.4636 44.1875 25.1976C44.3444 24.8312 44.1746 24.4055 43.8089 24.248V24.248Z" fill="#f55455"></path> <path d="M40.1572 22.6784L39.4931 22.3929C39.4027 22.3539 39.3066 22.3336 39.2084 22.3336C38.9194 22.3336 38.6585 22.5057 38.5443 22.7717C38.5053 22.8613 38.4858 22.9552 38.4851 23.052C38.4836 23.3433 38.6549 23.6056 38.9223 23.7205L39.5864 24.0059C39.6775 24.045 39.7728 24.0652 39.8711 24.0652C40.1609 24.0652 40.4218 23.8931 40.5359 23.6279C40.6118 23.4502 40.6147 23.2536 40.5432 23.0744C40.4716 22.8952 40.3343 22.7549 40.1572 22.6784V22.6784Z" fill="#f55455"></path> <path d="M42.8594 15.7308C42.9577 15.7308 43.0538 15.7112 43.1448 15.6715L43.809 15.3868C44.1753 15.2292 44.3444 14.8029 44.1876 14.4372C44.0734 14.1713 43.8126 14 43.5228 14C43.4252 14 43.329 14.0195 43.2381 14.0585L42.5739 14.344C42.2083 14.5015 42.0385 14.9272 42.1961 15.2936C42.3102 15.5595 42.5703 15.7308 42.8594 15.7308V15.7308Z" fill="#f55455"></path> <path d="M39.2085 17.3004C39.3067 17.3004 39.4028 17.2808 39.4932 17.2418L40.1573 16.9564C40.5229 16.7988 40.6928 16.3732 40.5359 16.0068C40.4218 15.7408 40.1609 15.5695 39.8711 15.5695C39.7728 15.5695 39.6774 15.5891 39.5864 15.6282L38.9223 15.9135C38.6549 16.0284 38.4837 16.2915 38.4851 16.582C38.4858 16.6788 38.5053 16.7735 38.5443 16.8632C38.6586 17.1291 38.9194 17.3004 39.2085 17.3004Z" fill="#f55455"></path> <path d="M44.3184 19.0947H43.5957C43.1975 19.0947 42.873 19.4192 42.873 19.8174C42.873 20.2156 43.1975 20.54 43.5957 20.54H44.3184C44.7165 20.54 45.041 20.2156 45.041 19.8174C45.041 19.4192 44.7165 19.0947 44.3184 19.0947Z" fill="#f55455"></path> <path d="M40.3438 19.0947H39.6211C39.2229 19.0947 38.8984 19.4192 38.8984 19.8174C38.8984 20.2156 39.2229 20.54 39.6211 20.54H40.3438C40.7419 20.54 41.0664 20.2156 41.0664 19.8174C41.0664 19.4192 40.7419 19.0947 40.3438 19.0947Z" fill="#f55455"></path> <path d="M31.6719 20.54C32.071 20.54 32.3945 20.2165 32.3945 19.8174C32.3945 19.4183 32.071 19.0947 31.6719 19.0947C31.2728 19.0947 30.9492 19.4183 30.9492 19.8174C30.9492 20.2165 31.2728 20.54 31.6719 20.54Z" fill="#f55455"></path> </svg> 